{
	"asset":{
		"generator":"Khronos glTF Blender I/O v3.5.30",
		"version":"2.0"
	},
	"scene":0,
	"scenes":[
		{
			"name":"Scene",
			"nodes":[
				6
			]
		}
	],
	"nodes":[
		{
			"mesh":0,
			"name":"high_polyMesh1_material0_0"
		},
		{
			"children":[
				0
			],
			"name":"high_polyMesh1"
		},
		{
			"mesh":1,
			"name":"male_genericMesh_material0_0"
		},
		{
			"children":[
				2
			],
			"name":"male_genericMesh"
		},
		{
			"children":[
				1,
				3
			],
			"name":"RootNode"
		},
		{
			"children":[
				4
			],
			"name":"eedfdf4c5e9446fb8f06a26cb2f27a3b.fbx",
			"rotation":[
				0.70710688829422,
				0,
				0,
				0.7071066498756409
			]
		},
		{
			"children":[
				5
			],
			"name":"Sketchfab_model",
			"rotation":[
				-0.70710688829422,
				0,
				0,
				0.7071066498756409
			],
			"scale":[
				0.009999999776482582,
				0.009999999776482582,
				0.009999999776482582
			]
		}
	],
	"materials":[
		{
			"doubleSided":true,
			"name":"material0_0",
			"pbrMetallicRoughness":{
				"baseColorTexture":{
					"index":0
				},
				"metallicFactor":0,
				"roughnessFactor":0.6000000238418579
			}
		},
		{
			"doubleSided":true,
			"name":"material0",
			"normalTexture":{
				"index":1
			},
			"pbrMetallicRoughness":{
				"baseColorFactor":[
					0.26928532123565674,
					0.26928532123565674,
					0.26928532123565674,
					1
				],
				"metallicFactor":0,
				"roughnessFactor":0.4629419445991516
			}
		}
	],
	"meshes":[
		{
			"name":"high_polyMesh1_material0_0",
			"primitives":[
				{
					"attributes":{
						"POSITION":0,
						"TEXCOORD_0":1,
						"NORMAL":2
					},
					"indices":3,
					"material":0
				}
			]
		},
		{
			"name":"male_genericMesh_material0_0",
			"primitives":[
				{
					"attributes":{
						"POSITION":4,
						"TEXCOORD_0":5,
						"NORMAL":6
					},
					"indices":7,
					"material":1
				}
			]
		}
	],
	"textures":[
		{
			"sampler":0,
			"source":0
		},
		{
			"sampler":0,
			"source":1
		}
	],
	"images":[
		{
			"bufferView":4,
			"mimeType":"image/png",
			"name":"material0_0_baseColor"
		},
		{
			"bufferView":9,
			"mimeType":"image/png",
			"name":"material0_normal"
		}
	],
	"accessors":[
		{
			"bufferView":0,
			"componentType":5126,
			"count":552,
			"max":[
				46.73236083984375,
				1773.2008056640625,
				141.9781951904297
			],
			"min":[
				-46.037803649902344,
				1743.151123046875,
				118.24453735351562
			],
			"type":"VEC3"
		},
		{
			"bufferView":1,
			"componentType":5126,
			"count":552,
			"type":"VEC2"
		},
		{
			"bufferView":2,
			"componentType":5126,
			"count":552,
			"type":"VEC3"
		},
		{
			"bufferView":3,
			"componentType":5123,
			"count":3180,
			"type":"SCALAR"
		},
		{
			"bufferView":5,
			"componentType":5126,
			"count":14791,
			"max":[
				511.439453125,
				1874.2861328125,
				218.8246612548828
			],
			"min":[
				-511.4498596191406,
				15.743720054626465,
				-108.92776489257812
			],
			"type":"VEC3"
		},
		{
			"bufferView":6,
			"componentType":5126,
			"count":14791,
			"type":"VEC2"
		},
		{
			"bufferView":7,
			"componentType":5126,
			"count":14791,
			"type":"VEC3"
		},
		{
			"bufferView":8,
			"componentType":5123,
			"count":81900,
			"type":"SCALAR"
		}
	],
	"bufferViews":[
		{
			"buffer":0,
			"byteLength":6624,
			"byteOffset":0,
			"target":34962
		},
		{
			"buffer":0,
			"byteLength":4416,
			"byteOffset":6624,
			"target":34962
		},
		{
			"buffer":0,
			"byteLength":6624,
			"byteOffset":11040,
			"target":34962
		},
		{
			"buffer":0,
			"byteLength":6360,
			"byteOffset":17664,
			"target":34963
		},
		{
			"buffer":0,
			"byteLength":595337,
			"byteOffset":24024
		},
		{
			"buffer":0,
			"byteLength":177492,
			"byteOffset":619364,
			"target":34962
		},
		{
			"buffer":0,
			"byteLength":118328,
			"byteOffset":796856,
			"target":34962
		},
		{
			"buffer":0,
			"byteLength":177492,
			"byteOffset":915184,
			"target":34962
		},
		{
			"buffer":0,
			"byteLength":163800,
			"byteOffset":1092676,
			"target":34963
		},
		{
			"buffer":0,
			"byteLength":784438,
			"byteOffset":1256476
		}
	],
	"samplers":[
		{
			"magFilter":9729,
			"minFilter":9987
		}
	],
	"buffers":[
		{
			"byteLength":2040916,
			"uri":"data:application/octet-stream;base64,"
		}
	]
}
